<svg width="28" height="28" viewBox="0 0 28 28" fill="none" xmlns="http://www.w3.org/2000/svg">
<path d="M6.22222 19.8612H11.7778C13.0051 19.8612 14 20.8561 14 22.0834V12.0834C14 8.94072 14 7.36937 13.0237 6.39306C12.0474 5.41675 10.476 5.41675 7.33333 5.41675H6.22222C5.17466 5.41675 4.65087 5.41675 4.32544 5.74218C4 6.06762 4 6.5914 4 7.63896V7.63897V17.639V17.639C4 18.6865 4 19.2103 4.32544 19.5358C4.65087 19.8612 5.17466 19.8612 6.22222 19.8612Z" fill="#0F1112"/>
<path d="M21.7778 19.8612H16.2222C14.9949 19.8612 14 20.8561 14 22.0834V12.0834C14 8.94072 14 7.36937 14.9763 6.39306C15.9526 5.41675 17.524 5.41675 20.6667 5.41675H21.7778C22.8253 5.41675 23.3491 5.41675 23.6746 5.74218C24 6.06762 24 6.5914 24 7.63896V7.63897V17.639V17.639C24 18.6865 24 19.2103 23.6746 19.5358C23.3491 19.8612 22.8253 19.8612 21.7778 19.8612Z" fill="#0F1112"/>
</svg>
