<svg width="24" height="17" viewBox="0 0 24 17" fill="none" xmlns="http://www.w3.org/2000/svg">
<path d="M13.0974 0H10.9062V17H13.0974V0Z" fill="#0F1112"/>
<path d="M20.0099 2.31542C20.6266 2.31542 21.1265 1.79708 21.1265 1.1577C21.1265 0.518321 20.6266 0 20.0099 0H3.97589C3.35925 0 2.85938 0.518321 2.85938 1.1577C2.85938 1.79708 3.35925 2.31542 3.97589 2.31542H20.0099Z" fill="#0F1112"/>
<path d="M0 9.79053H9.49033C9.49033 12.4497 7.40838 14.6085 4.8438 14.6085H4.64652C2.0819 14.6085 0 12.4497 0 9.79053Z" fill="#0F1112"/>
<path d="M14.5078 9.79053H23.9981C23.9981 12.4497 21.9162 14.6085 19.3517 14.6085H19.1543C16.5897 14.6085 14.5078 12.4497 14.5078 9.79053Z" fill="#0F1112"/>
<path d="M19.8714 0.951172H18.6289V11.2008H19.8714V0.951172Z" fill="#0F1112"/>
<path d="M5.3635 0.951172H4.12109V11.2008H5.3635V0.951172Z" fill="#0F1112"/>
</svg>
