<svg width="24" height="24" viewBox="0 0 24 24" fill="none" xmlns="http://www.w3.org/2000/svg">
<path d="M11.5 16.2998L7.24316 18.8545C7.09258 18.9449 7 19.1076 7 19.2832V20.8496C7.00003 20.9324 7.06757 21 7.15039 21H5.5C5.22386 21 5 20.7761 5 20.5V17.8223C5.00015 17.1606 5.32796 16.5413 5.875 16.1689L11.5 12.3398V16.2998ZM18.125 16.1689C18.672 16.5413 18.9999 17.1606 19 17.8223V20.5C19 20.7761 18.7761 21 18.5 21H16.8496C16.9324 21 17 20.9324 17 20.8496V19.2832C17 19.1076 16.9074 18.9449 16.7568 18.8545L12.5 16.2998V12.3398L18.125 16.1689ZM18.7471 7.14453C18.5976 7.41456 18.3878 7.6522 18.125 7.83105L12.4131 11.7178C12.3231 11.5858 12.1718 11.499 12 11.499C11.828 11.499 11.6759 11.5855 11.5859 11.7178L5.875 7.83105C5.6121 7.65211 5.40146 7.41474 5.25195 7.14453L12 11.001L18.7471 7.14453ZM18.5 3C18.7761 3 19 3.22386 19 3.5V6.17773C18.9999 6.46647 18.9341 6.74548 18.8184 7.00098H5.18164C5.06589 6.74548 5.00006 6.46647 5 6.17773V3.5C5 3.22386 5.22386 3 5.5 3H18.5Z" fill="#0F1112"/>
<path d="M12 12L18.1254 16.1694C18.6725 16.5418 19 17.1608 19 17.8227V20.5C19 20.7761 18.7761 21 18.5 21H5.5C5.22386 21 5 20.7761 5 20.5V17.8227C5 17.1608 5.32746 16.5418 5.87462 16.1694L12 12ZM12 12L18.1254 7.83062C18.6725 7.45819 19 6.83917 19 6.17729V3.5C19 3.22386 18.7761 3 18.5 3H5.5C5.22386 3 5 3.22386 5 3.5V6.17729C5 6.83917 5.32746 7.45819 5.87462 7.83062L12 12Z" stroke="#0F1112" stroke-width="2" stroke-linecap="round" stroke-linejoin="round"/>
</svg>
